<?xml version="1.0" encoding="utf-8"?>
<!-- Generator: Adobe Illustrator 16.0.0, SVG Export Plug-In . SVG Version: 6.00 Build 0)  -->
<!DOCTYPE svg PUBLIC "-//W3C//DTD SVG 1.1//EN" "http://www.w3.org/Graphics/SVG/1.1/DTD/svg11.dtd">
<svg version="1.1" id="Layer_1" xmlns="http://www.w3.org/2000/svg" xmlns:xlink="http://www.w3.org/1999/xlink" x="0px" y="0px"
	 width="512px" height="512px" viewBox="94 94 512 512" enable-background="new 94 94 512 512" xml:space="preserve">
<g>
	<path fill="#979494" d="M350,590c-132.337,0-240-107.663-240-240s107.663-240,240-240s240,107.663,240,240S482.337,590,350,590z"/>
	<path fill="#CCCCCC" d="M350,141.161c-115.154,0-208.838,93.685-208.838,208.838c0,115.154,93.685,208.84,208.838,208.84
		c115.154,0,208.84-93.686,208.84-208.84C558.84,234.846,465.155,141.161,350,141.161z"/>
	<path fill="#333131" d="M407.402,222.431c0,31.806-25.781,57.586-57.586,57.586c-31.806,0-57.588-25.78-57.588-57.586
		c0-31.801,25.782-57.583,57.588-57.583C381.62,164.848,407.402,190.63,407.402,222.431"/>
	<path fill="#333131" d="M268.531,236.281c27.542,15.904,36.976,51.12,21.076,78.659c-15.902,27.545-51.122,36.979-78.663,21.075
		c-27.54-15.896-36.979-51.118-21.076-78.657C205.772,229.812,240.988,220.377,268.531,236.281"/>
	<path fill="#333131" d="M289.801,384.671c15.902,27.543,6.464,62.763-21.077,78.664c-27.54,15.9-62.76,6.466-78.664-21.074
		c-15.902-27.547-6.463-62.764,21.075-78.665C238.683,347.694,273.896,357.128,289.801,384.671"/>
	<path fill="#333131" d="M407.402,477.207c0,31.8-25.781,57.583-57.586,57.583c-31.806,0-57.588-25.783-57.588-57.583
		c0-31.805,25.782-57.59,57.588-57.59C381.62,419.617,407.402,445.402,407.402,477.207"/>
	<path fill="#333131" d="M488.795,363.84c27.539,15.897,36.98,51.121,21.077,78.656c-15.904,27.549-51.124,36.983-78.663,21.077
		c-27.541-15.903-36.98-51.116-21.078-78.657C426.036,357.371,461.254,347.937,488.795,363.84"/>
	<path fill="#333131" d="M509.595,257.486c15.903,27.54,6.464,62.761-21.073,78.665c-27.549,15.896-62.762,6.463-78.665-21.077
		c-15.903-27.546-6.464-62.76,21.077-78.664C458.473,220.507,493.693,229.941,509.595,257.486"/>
	<path fill="#333131" d="M375.119,344.583c0,13.974-11.327,25.3-25.301,25.3c-13.971,0-25.304-11.328-25.304-25.3
		c0-13.974,11.333-25.306,25.304-25.306C363.792,319.277,375.119,330.609,375.119,344.583"/>
</g>
</svg>
