<?xml version="1.0" encoding="utf-8"?>
<!-- Generator: Adobe Illustrator 16.0.0, SVG Export Plug-In . SVG Version: 6.00 Build 0)  -->
<!DOCTYPE svg PUBLIC "-//W3C//DTD SVG 1.1//EN" "http://www.w3.org/Graphics/SVG/1.1/DTD/svg11.dtd">
<svg version="1.1" id="Layer_1" xmlns="http://www.w3.org/2000/svg" xmlns:xlink="http://www.w3.org/1999/xlink" x="0px" y="0px"
	 width="96px" height="96px" viewBox="302 302 96 96" enable-background="new 302 302 96 96" xml:space="preserve">
<path fill="#9E9E9E" d="M392,377h-2.999v-42.155c1.854-1.894,2.999-4.487,2.999-7.346c0-5.794-4.704-10.499-10.5-10.499
	c-5.795,0-10.499,4.704-10.499,10.499c0,2.858,1.143,5.452,2.999,7.346l0,0v0.035c-0.093,0.18-0.903,1.748-1.893,2.868
	c-3.662,4.148-11.398,9.252-22.107,9.252c-10.71,0-18.445-5.103-22.108-9.252c-0.987-1.121-1.8-2.688-1.891-2.868v-0.035
	c1.855-1.894,3-4.487,3-7.346c0-5.794-4.704-10.499-10.501-10.499c-5.794,0-10.499,4.704-10.499,10.499
	c0,2.858,1.144,5.452,2.999,7.346V377h-2.999c-1.656,0-3.001,1.345-3.001,3.001c0,1.654,1.345,2.999,3.001,2.999h21
	c1.656,0,2.999-1.345,2.999-2.999c0-1.656-1.343-3.001-2.999-3.001h-3v-32.708c5.001,4.349,13.236,8.709,24,8.709
	s18.998-4.361,23.999-8.709V377h-2.999c-1.657,0-3.001,1.345-3.001,3.001c0,1.654,1.344,2.999,3.001,2.999H392
	c1.656,0,3-1.345,3-2.999C395,378.344,393.656,377,392,377z M320,376.999h-3v-39.105c0.49,0.07,0.992,0.106,1.499,0.106
	c0.511,0,1.012-0.036,1.501-0.106V376.999z M318.499,332c-2.482,0-4.5-2.016-4.5-4.5c0-2.482,2.018-4.5,4.5-4.5
	c2.484,0,4.501,2.018,4.501,4.5C323,329.984,320.984,332,318.499,332z M383,376.999h-3v-39.105c0.489,0.07,0.991,0.106,1.499,0.106
	c0.51,0,1.012-0.036,1.501-0.106V376.999z M381.499,332c-2.482,0-4.5-2.016-4.5-4.5c0-2.482,2.018-4.5,4.5-4.5
	c2.484,0,4.5,2.018,4.5,4.5C385.999,329.984,383.984,332,381.499,332z"/>
</svg>
