<?xml version="1.0" encoding="utf-8"?>
<!-- Generator: Adobe Illustrator 16.0.0, SVG Export Plug-In . SVG Version: 6.00 Build 0)  -->
<!DOCTYPE svg PUBLIC "-//W3C//DTD SVG 1.1//EN" "http://www.w3.org/Graphics/SVG/1.1/DTD/svg11.dtd">
<svg version="1.1" id="Layer_1" xmlns="http://www.w3.org/2000/svg" xmlns:xlink="http://www.w3.org/1999/xlink" x="0px" y="0px"
	 width="96px" height="96px" viewBox="302 302 96 96" enable-background="new 302 302 96 96" xml:space="preserve">
<path fill="#9E9E9E" d="M350,395c-24.813,0-45-20.187-45-45c0-24.813,20.187-45,45-45s45,20.187,45,45
	C395,374.813,374.814,395,350,395z M350,310.843c-21.592,0-39.157,17.566-39.157,39.157c0,21.592,17.565,39.157,39.157,39.157
	s39.157-17.565,39.157-39.157C389.157,328.408,371.592,310.843,350,310.843z M360.763,326.081c0-5.963-4.834-10.797-10.798-10.797
	c-5.963,0-10.797,4.834-10.797,10.797c0,5.963,4.834,10.797,10.797,10.797C355.929,336.878,360.763,332.044,360.763,326.081
	 M334.725,328.677c-5.164-2.982-11.768-1.213-14.749,3.952c-2.982,5.164-1.212,11.768,3.951,14.749
	c5.164,2.981,11.768,1.213,14.75-3.952C341.657,338.262,339.889,331.659,334.725,328.677 M338.713,356.501
	c-2.982-5.164-9.585-6.933-14.75-3.952c-5.163,2.981-6.934,9.585-3.951,14.75c2.981,5.164,9.585,6.933,14.749,3.951
	S341.695,361.665,338.713,356.501 M360.763,373.851c0-5.964-4.834-10.799-10.798-10.799c-5.963,0-10.797,4.835-10.797,10.799
	c0,5.962,4.834,10.797,10.797,10.797C355.929,384.648,360.763,379.813,360.763,373.851 M376.025,352.594
	c-5.164-2.981-11.768-1.213-14.75,3.952c-2.981,5.164-1.212,11.767,3.952,14.748c5.164,2.982,11.768,1.214,14.749-3.952
	C382.958,362.179,381.188,355.576,376.025,352.594 M379.924,332.654c-2.981-5.165-9.585-6.934-14.749-3.952
	s-6.934,9.584-3.952,14.749c2.982,5.164,9.585,6.933,14.75,3.952C381.136,344.421,382.906,337.817,379.924,332.654 M354.71,348.984
	c0-2.62-2.124-4.745-4.744-4.745c-2.619,0-4.744,2.125-4.744,4.745c0,2.619,2.125,4.744,4.744,4.744
	C352.586,353.728,354.71,351.604,354.71,348.984"/>
</svg>
