<?xml version="1.0" encoding="utf-8"?>
<!-- Generator: Adobe Illustrator 16.0.0, SVG Export Plug-In . SVG Version: 6.00 Build 0)  -->
<!DOCTYPE svg PUBLIC "-//W3C//DTD SVG 1.1//EN" "http://www.w3.org/Graphics/SVG/1.1/DTD/svg11.dtd">
<svg version="1.1" id="Layer_1" xmlns="http://www.w3.org/2000/svg" xmlns:xlink="http://www.w3.org/1999/xlink" x="0px" y="0px"
	 width="96px" height="96px" viewBox="444 302 96 96" enable-background="new 444 302 96 96" xml:space="preserve">
<path fill="#9E9E9E" d="M492,310c-22.075,0-40,17.923-40,40c0,22.077,17.924,40,40,40c22.077,0,40-17.921,40-40
	C532,327.925,514.079,310,492,310L492,310z M492,315.333c19.133,0,34.668,15.533,34.668,34.666S511.135,384.668,492,384.668
	c-19.131,0-34.666-15.533-34.666-34.668C457.334,330.868,472.868,315.333,492,315.333L492,315.333z M492,357.999
	c-5.886,0-10.665,4.781-10.665,10.667c0,5.887,4.779,10.667,10.665,10.667c5.889,0,10.668-4.78,10.668-10.667
	S497.888,357.999,492,357.999z M492,363.333c2.944,0,5.334,2.39,5.334,5.333c0,2.944-2.39,5.333-5.334,5.333
	c-2.942,0-5.332-2.389-5.332-5.333C486.668,365.722,489.058,363.333,492,363.333z M521.334,350c0-5.887-4.779-10.666-10.666-10.666
	s-10.667,4.78-10.667,10.666c0,5.889,4.78,10.667,10.667,10.667S521.334,355.887,521.334,350z M484.001,350
	c0-5.887-4.78-10.666-10.666-10.666s-10.666,4.78-10.666,10.666c0,5.889,4.78,10.667,10.666,10.667S484.001,355.887,484.001,350z
	 M516.001,350c0,2.943-2.39,5.333-5.333,5.333c-2.944,0-5.333-2.39-5.333-5.333c0-2.942,2.389-5.333,5.333-5.333
	C513.612,344.667,516.001,347.057,516.001,350z M478.668,350c0,2.943-2.39,5.333-5.333,5.333c-2.944,0-5.334-2.39-5.334-5.333
	c0-2.942,2.39-5.333,5.334-5.333C476.279,344.667,478.668,347.057,478.668,350z M492,320.668c-5.886,0-10.666,4.779-10.666,10.666
	s4.78,10.666,10.666,10.666c5.889,0,10.668-4.78,10.668-10.666S497.888,320.668,492,320.668z M492,326
	c2.944,0,5.333,2.389,5.333,5.333s-2.389,5.333-5.333,5.333c-2.942,0-5.332-2.39-5.332-5.333S489.058,326,492,326z"/>
</svg>
