<?xml version="1.0" encoding="utf-8"?>
<!-- Generator: Adobe Illustrator 16.0.0, SVG Export Plug-In . SVG Version: 6.00 Build 0)  -->
<!DOCTYPE svg PUBLIC "-//W3C//DTD SVG 1.1//EN" "http://www.w3.org/Graphics/SVG/1.1/DTD/svg11.dtd">
<svg version="1.1" id="Layer_1" xmlns="http://www.w3.org/2000/svg" xmlns:xlink="http://www.w3.org/1999/xlink" x="0px" y="0px"
	 width="24px" height="24px" viewBox="0 0 24 24" enable-background="new 0 0 24 24" xml:space="preserve">
<path fill="#757C99" d="M22.707,20.293l-3.682-3.682C20.258,15.07,21,13.122,21,11c0-4.962-4.037-9-9-9c-4.962,0-9,4.038-9,9
	c0,4.963,4.038,9,9,9c2.122,0,4.07-0.742,5.611-1.975l3.682,3.682C21.488,21.902,21.744,22,22,22s0.512-0.098,0.707-0.293
	C23.098,21.316,23.098,20.684,22.707,20.293z M5,11c0-3.86,3.14-7,7-7c3.859,0,7,3.14,7,7c0,1.922-0.779,3.664-2.038,4.932
	c-0.006,0.006-0.013,0.006-0.019,0.012c-0.006,0.007-0.008,0.014-0.014,0.02C15.664,17.221,13.922,18,12,18C8.14,18,5,14.859,5,11z"
	/>
</svg>
